<svg width="25" height="25" viewBox="0 0 25 25" fill="none" xmlns="http://www.w3.org/2000/svg">
<path d="M21.0935 13.0937V11.8984L22.5935 10.5859C22.87 10.3422 23.0514 10.0086 23.1058 9.64404C23.1601 9.27949 23.0838 8.90747 22.8904 8.59373L21.0466 5.46873C20.9096 5.23144 20.7126 5.03434 20.4754 4.89722C20.2382 4.76009 19.9691 4.68776 19.6951 4.68748C19.5252 4.68618 19.3564 4.71257 19.1951 4.76561L17.2966 5.40623C16.9688 5.18843 16.6269 4.99268 16.2732 4.82029L15.8747 2.85154C15.8033 2.49186 15.6076 2.16876 15.322 1.93881C15.0363 1.70886 14.6789 1.58671 14.3122 1.59373H10.656C10.2893 1.58671 9.93191 1.70886 9.64626 1.93881C9.36061 2.16876 9.16493 2.49186 9.09349 2.85154L8.69505 4.82029C8.33875 4.99264 7.99425 5.18838 7.6638 5.40623L5.80443 4.73436C5.64138 4.69188 5.47253 4.67605 5.30443 4.68748C5.03042 4.68776 4.76131 4.76009 4.52409 4.89722C4.28686 5.03434 4.08987 5.23144 3.95286 5.46873L2.10911 8.59373C1.92676 8.907 1.859 9.27393 1.91743 9.63167C1.97587 9.98941 2.15687 10.3157 2.42943 10.5547L3.90599 11.9062V13.1015L2.42943 14.414C2.14917 14.6547 1.96322 14.9868 1.90458 15.3515C1.84594 15.7162 1.91841 16.0899 2.10911 16.4062L3.95286 19.5312C4.08987 19.7685 4.28686 19.9656 4.52409 20.1027C4.76131 20.2399 5.03042 20.3122 5.30443 20.3125C5.47423 20.3138 5.64311 20.2874 5.80443 20.2344L7.70286 19.5937C8.03063 19.8115 8.37253 20.0073 8.7263 20.1797L9.12474 22.1484C9.19618 22.5081 9.39186 22.8312 9.67751 23.0612C9.96316 23.2911 10.3206 23.4133 10.6872 23.4062H14.3747C14.7414 23.4133 15.0988 23.2911 15.3845 23.0612C15.6701 22.8312 15.8658 22.5081 15.9372 22.1484L16.3357 20.1797C16.692 20.0073 17.0365 19.8116 17.3669 19.5937L19.2576 20.2344C19.4189 20.2874 19.5877 20.3138 19.7576 20.3125C20.0316 20.3122 20.3007 20.2399 20.5379 20.1027C20.7751 19.9656 20.9721 19.7685 21.1091 19.5312L22.8904 16.4062C23.0727 16.093 23.1405 15.726 23.082 15.3683C23.0236 15.0106 22.8426 14.6843 22.5701 14.4453L21.0935 13.0937ZM19.6951 18.75L17.0154 17.8437C16.3881 18.3751 15.6711 18.7904 14.8982 19.0703L14.3435 21.875H10.656L10.1013 19.1015C9.33444 18.8137 8.62139 18.3991 7.99193 17.875L5.30443 18.75L3.46068 15.625L5.58568 13.75C5.44122 12.9413 5.44122 12.1134 5.58568 11.3047L3.46068 9.37498L5.30443 6.24998L7.98411 7.15623C8.61141 6.6249 9.32834 6.20956 10.1013 5.92967L10.656 3.12498H14.3435L14.8982 5.89842C15.665 6.18625 16.3781 6.60087 17.0076 7.12498L19.6951 6.24998L21.5388 9.37498L19.4138 11.25C19.5583 12.0587 19.5583 12.8866 19.4138 13.6953L21.5388 15.625L19.6951 18.75Z" fill="#75DDFE"/>
<path d="M12.5 17.1875C11.5729 17.1875 10.6666 16.9126 9.89577 16.3975C9.12491 15.8824 8.5241 15.1504 8.16932 14.2938C7.81453 13.4373 7.7217 12.4948 7.90257 11.5855C8.08344 10.6762 8.52988 9.841 9.18544 9.18544C9.841 8.52988 10.6762 8.08344 11.5855 7.90257C12.4948 7.7217 13.4373 7.81453 14.2938 8.16932C15.1504 8.5241 15.8824 9.12491 16.3975 9.89577C16.9126 10.6666 17.1875 11.5729 17.1875 12.5C17.1938 13.1173 17.0768 13.7297 16.8435 14.3012C16.6101 14.8728 16.2651 15.392 15.8285 15.8285C15.392 16.2651 14.8728 16.6101 14.3012 16.8435C13.7297 17.0768 13.1173 17.1938 12.5 17.1875ZM12.5 9.375C12.087 9.36538 11.6763 9.43964 11.2928 9.59328C10.9093 9.74692 10.561 9.97675 10.2689 10.2689C9.97675 10.561 9.74692 10.9093 9.59328 11.2928C9.43964 11.6763 9.36538 12.087 9.375 12.5C9.36538 12.913 9.43964 13.3237 9.59328 13.7072C9.74692 14.0907 9.97675 14.439 10.2689 14.7311C10.561 15.0233 10.9093 15.2531 11.2928 15.4067C11.6763 15.5604 12.087 15.6346 12.5 15.625C12.913 15.6346 13.3237 15.5604 13.7072 15.4067C14.0907 15.2531 14.439 15.0233 14.7311 14.7311C15.0233 14.439 15.2531 14.0907 15.4067 13.7072C15.5604 13.3237 15.6346 12.913 15.625 12.5C15.6346 12.087 15.5604 11.6763 15.4067 11.2928C15.2531 10.9093 15.0233 10.561 14.7311 10.2689C14.439 9.97675 14.0907 9.74692 13.7072 9.59328C13.3237 9.43964 12.913 9.36538 12.5 9.375Z" fill="#75DDFE"/>
</svg>
