<svg width="281" height="62" viewBox="0 0 281 62" fill="none" xmlns="http://www.w3.org/2000/svg">
<path d="M26.4609 19.4688L19.5859 44H14.625L23.6484 15.5625H26.7344L26.4609 19.4688ZM31.9492 44L25.0547 19.4688L24.7227 15.5625H27.8672L36.9297 44H31.9492ZM32.0664 33.4336V37.418H18.8242V33.4336H32.0664ZM45.1133 15.5625V44H40.3672V15.5625H45.1133Z" fill="#75DDFE"/>
<rect x="1" y="1" width="60" height="60" stroke="#75DDFE" stroke-width="2"/>
<path d="M75.6982 19.6719V41H72.1387V19.6719H75.6982ZM94.2725 19.6719V41H90.7861L83.2568 26.2344V41H79.8145V19.6719H83.2568L90.8447 34.54V19.6719H94.2725ZM105.61 19.6719V41H102.065V19.6719H105.61ZM111.045 19.6719V22.6602H96.6895V19.6719H111.045ZM125.737 38.0264V41H116.479V38.0264H125.737ZM117.417 19.6719V41H113.857V19.6719H117.417ZM124.492 28.5488V31.4785H116.479V28.5488H124.492ZM125.649 19.6719V22.6602H116.479V19.6719H125.649ZM140.166 38.0264V41H131.304V38.0264H140.166ZM132.241 19.6719V41H128.682V19.6719H132.241ZM154.492 38.0264V41H145.63V38.0264H154.492ZM146.567 19.6719V41H143.008V19.6719H146.567ZM161.04 19.6719V41H157.48V19.6719H161.04ZM179.116 30.0576V38.4658C178.853 38.7881 178.452 39.1738 177.915 39.623C177.388 40.0625 176.675 40.4531 175.776 40.7949C174.888 41.127 173.765 41.293 172.407 41.293C171.265 41.293 170.22 41.1074 169.272 40.7363C168.335 40.3652 167.529 39.8037 166.855 39.0518C166.182 38.2998 165.664 37.3623 165.303 36.2393C164.941 35.1064 164.761 33.7686 164.761 32.2256V28.4316C164.761 26.9082 164.922 25.5801 165.244 24.4473C165.576 23.3145 166.06 22.3721 166.694 21.6201C167.329 20.8584 168.101 20.2969 169.009 19.9355C169.917 19.5645 170.962 19.3789 172.144 19.3789C173.638 19.3789 174.883 19.6426 175.879 20.1699C176.885 20.6875 177.651 21.459 178.179 22.4844C178.716 23.5 179.028 24.7402 179.116 26.2051H175.645C175.566 25.3066 175.396 24.5791 175.132 24.0225C174.878 23.4561 174.512 23.0361 174.033 22.7627C173.555 22.4893 172.939 22.3525 172.188 22.3525C171.504 22.3525 170.918 22.4697 170.43 22.7041C169.941 22.9385 169.541 23.3047 169.229 23.8027C168.916 24.291 168.687 24.916 168.54 25.6777C168.394 26.4395 168.32 27.3477 168.32 28.4023V32.2256C168.32 33.2998 168.413 34.2227 168.599 34.9941C168.784 35.7656 169.053 36.4004 169.404 36.8984C169.766 37.3867 170.21 37.748 170.737 37.9824C171.265 38.207 171.865 38.3193 172.539 38.3193C173.203 38.3193 173.73 38.251 174.121 38.1143C174.512 37.9775 174.814 37.8262 175.029 37.6602C175.254 37.4844 175.435 37.3477 175.571 37.25V32.8555H172.129V30.0576H179.116ZM194.673 38.0264V41H185.415V38.0264H194.673ZM186.353 19.6719V41H182.793V19.6719H186.353ZM193.428 28.5488V31.4785H185.415V28.5488H193.428ZM194.585 19.6719V22.6602H185.415V19.6719H194.585ZM212.075 19.6719V41H208.589L201.06 26.2344V41H197.617V19.6719H201.06L208.647 34.54V19.6719H212.075ZM226.504 34.042H230.049C229.98 35.585 229.668 36.8984 229.111 37.9824C228.555 39.0566 227.754 39.877 226.709 40.4434C225.674 41.0098 224.409 41.293 222.915 41.293C221.782 41.293 220.767 41.0879 219.868 40.6777C218.979 40.2676 218.223 39.6768 217.598 38.9053C216.973 38.124 216.494 37.1719 216.162 36.0488C215.84 34.9258 215.679 33.6514 215.679 32.2256V28.4463C215.679 27.0205 215.845 25.7461 216.177 24.623C216.519 23.5 217.007 22.5479 217.642 21.7666C218.276 20.9854 219.048 20.3945 219.956 19.9941C220.874 19.584 221.909 19.3789 223.062 19.3789C224.536 19.3789 225.776 19.6621 226.782 20.2285C227.788 20.7949 228.564 21.625 229.111 22.7188C229.658 23.8125 229.976 25.1455 230.063 26.7178H226.519C226.47 25.6533 226.323 24.8037 226.079 24.1689C225.845 23.5244 225.483 23.0605 224.995 22.7773C224.517 22.4941 223.872 22.3525 223.062 22.3525C222.388 22.3525 221.807 22.4795 221.318 22.7334C220.84 22.9873 220.444 23.3682 220.132 23.876C219.829 24.374 219.6 25.0039 219.443 25.7656C219.297 26.5176 219.224 27.4014 219.224 28.417V32.2256C219.224 33.2021 219.287 34.0664 219.414 34.8184C219.541 35.5703 219.746 36.21 220.029 36.7373C220.312 37.2549 220.688 37.6504 221.157 37.9238C221.626 38.1875 222.212 38.3193 222.915 38.3193C223.755 38.3193 224.424 38.1875 224.922 37.9238C225.43 37.6602 225.806 37.2158 226.05 36.5908C226.294 35.9658 226.445 35.1162 226.504 34.042ZM245.063 38.0264V41H235.806V38.0264H245.063ZM236.743 19.6719V41H233.184V19.6719H236.743ZM243.818 28.5488V31.4785H235.806V28.5488H243.818ZM244.976 19.6719V22.6602H235.806V19.6719H244.976ZM247.993 39.2129C247.993 38.6465 248.174 38.1729 248.535 37.792C248.906 37.4111 249.414 37.2207 250.059 37.2207C250.703 37.2207 251.206 37.4111 251.567 37.792C251.938 38.1729 252.124 38.6465 252.124 39.2129C252.124 39.7598 251.938 40.2236 251.567 40.6045C251.206 40.9854 250.703 41.1758 250.059 41.1758C249.414 41.1758 248.906 40.9854 248.535 40.6045C248.174 40.2236 247.993 39.7598 247.993 39.2129ZM260.063 19.6719V41H256.504V19.6719H260.063ZM278.652 28.5928V32.2256C278.652 33.7295 278.477 35.0479 278.125 36.1807C277.783 37.3135 277.285 38.2607 276.631 39.0225C275.986 39.7744 275.205 40.3408 274.287 40.7217C273.379 41.1025 272.363 41.293 271.24 41.293C270.127 41.293 269.111 41.1025 268.193 40.7217C267.285 40.3408 266.499 39.7744 265.835 39.0225C265.181 38.2607 264.673 37.3135 264.312 36.1807C263.96 35.0479 263.784 33.7295 263.784 32.2256V28.5928C263.784 27.0693 263.96 25.7363 264.312 24.5938C264.663 23.4414 265.166 22.4795 265.82 21.708C266.484 20.9365 267.271 20.3555 268.179 19.9648C269.097 19.5742 270.107 19.3789 271.211 19.3789C272.334 19.3789 273.35 19.5742 274.258 19.9648C275.176 20.3555 275.962 20.9365 276.616 21.708C277.271 22.4795 277.773 23.4414 278.125 24.5938C278.477 25.7363 278.652 27.0693 278.652 28.5928ZM275.122 32.2256V28.5635C275.122 27.4795 275.034 26.5518 274.858 25.7803C274.692 24.999 274.443 24.3643 274.111 23.876C273.779 23.3779 273.369 23.0117 272.881 22.7773C272.402 22.5332 271.846 22.4111 271.211 22.4111C270.596 22.4111 270.044 22.5332 269.556 22.7773C269.077 23.0117 268.667 23.3779 268.325 23.876C267.993 24.3643 267.739 24.999 267.563 25.7803C267.397 26.5518 267.314 27.4795 267.314 28.5635V32.2256C267.314 33.29 267.402 34.208 267.578 34.9795C267.754 35.7412 268.008 36.3662 268.34 36.8545C268.682 37.333 269.097 37.6895 269.585 37.9238C270.073 38.1582 270.625 38.2754 271.24 38.2754C271.865 38.2754 272.422 38.1582 272.91 37.9238C273.398 37.6895 273.804 37.333 274.126 36.8545C274.458 36.3662 274.707 35.7412 274.873 34.9795C275.039 34.208 275.122 33.29 275.122 32.2256Z" fill="#75DDFE"/>
</svg>
